<svg xmlns="http://www.w3.org/2000/svg" aria-label="noti-peek — inbox view, light theme" role="img" viewBox="0 0 1120 720"><title>noti-peek — inbox view (light)</title><defs><style>@import url(https://fonts.googleapis.com/css2?family=Chivo:ital,wght@0,400;0,500;1,400&amp;family=JetBrains+Mono:ital,wght@0,400;0,500;1,400&amp;display=swap);@keyframes blink{0%{opacity:1}50%{opacity:0}}:root{--win:oklch(0.96 0.01 80);--win-elev:oklch(0.92 0.01 80);--win-elev-2:oklch(0.88 0.01 80);--bg-sel:oklch(0.88 0.01 80);--line:oklch(0.80 0.01 80);--line-soft:oklch(0.85 0.01 80);--ink-1:oklch(0.20 0.01 80);--ink-2:oklch(0.35 0.01 80);--ink-3:oklch(0.50 0.01 80);--ink-4:oklch(0.60 0.01 80);--accent:oklch(0.15 0.02 80);--accent-ink:oklch(0.96 0.01 80);--gh:oklch(0.40 0.05 300);--ln:oklch(0.40 0.08 260);--ji:oklch(0.40 0.10 240);--bb:oklch(0.40 0.10 220)}.win{fill:var(--win)}.win-elev{fill:var(--win-elev)}.win-elev-2{fill:var(--win-elev-2)}.line-soft{stroke:var(--line-soft);stroke-width:1;fill:none}.ink-1{fill:var(--ink-1)}.ink-2{fill:var(--ink-2)}.ink-3{fill:var(--ink-3)}.ink-4{fill:var(--ink-4)}.accent{fill:var(--accent)}.accent-ink{fill:var(--accent-ink)}.gh{fill:var(--gh)}.ln{fill:var(--ln)}.ji{fill:var(--ji)}.bb{fill:var(--bb)}.f-body{font-family:&apos;Chivo&apos;,sans-serif}.f-disp,.f-mono{font-family:&apos;JetBrains Mono&apos;,monospace}.f-disp{font-style:italic}.cap{font-size:11px;letter-spacing:.12em;text-transform:uppercase;font-weight:500}.meta{font-size:12px;letter-spacing:.02em}.row-t{font-size:14px;font-weight:500}.row-s{font-size:13px}.title{font-size:20px;font-weight:500;letter-spacing:-.01em}.body{font-size:14px;line-height:1.5}.brand,.tab{font-size:15px;font-weight:500;letter-spacing:.02em}.tab{font-size:13px}.hint{font-size:12px;letter-spacing:.01em}.cursor{animation:blink 1s step-end infinite}</style><clipPath id="win"><rect width="1120" height="720" x="0" y="0" rx="12" ry="12"/></clipPath></defs><g clip-path="url(#win)"><rect width="1120" height="720" class="win"/><rect width="1120" height="52" x="0" y="0" class="win-elev"/><line x1="0" x2="1120" y1="52" y2="52" class="line-soft"/><circle cx="22" cy="26" r="6" fill="#ff5f56" stroke="#e0443e" stroke-width=".5"/><circle cx="42" cy="26" r="6" fill="#ffbd2e" stroke="#dea123" stroke-width=".5"/><circle cx="62" cy="26" r="6" fill="#27c93f" stroke="#1da831" stroke-width=".5"/><text x="96" y="31" class="f-mono brand ink-1">noti<tspan class="f-disp" dx="0">peek</tspan><tspan fill="var(--accent)" class="cursor" dx="2">_</tspan></text><g transform="translate(470, 0)"><rect width="180" height="28" x="0" y="12" class="win-elev-2" rx="4"/><rect width="88" height="24" x="2" y="14" fill="var(--bg-sel)" stroke="var(--line-soft)" stroke-width="1" rx="2"/><text x="46" y="31" class="f-mono tab ink-1" text-anchor="middle">inbox</text><text x="134" y="31" class="f-mono tab ink-3" text-anchor="middle">pulse</text></g><g><text x="0" y="11" class="f-mono hint ink-3" transform="translate(990, 19)">12 unread</text><g fill="none" stroke="var(--ink-2)" stroke-linecap="round" stroke-width="1.4" transform="translate(990, 19) translate(90, -4)"><circle cx="8" cy="8" r="6.5"/><circle cx="8" cy="8" r="2" fill="var(--ink-2)" stroke="none"/></g></g><line x1="440" x2="440" y1="52" y2="680" class="line-soft"/><g><text x="24" y="88" class="f-mono cap ink-3">Today · Apr 22</text><line x1="170" x2="416" y1="84" y2="84" class="line-soft"/><rect width="416" height="72" x="12" y="100" fill="var(--bg-sel)" stroke="var(--accent)" stroke-width="1.5" rx="4"/><g><text x="28" y="120" class="f-mono meta gh" transform="translate(0, 0)">github · Rohithgilla12/noti-peek</text><text x="360" y="120" class="f-mono meta ink-3" transform="translate(0, 0)">14:32</text><text x="28" y="142" class="f-body row-t ink-1" transform="translate(0, 0)">fix: harden error paths — token refresh, dedup</text><text x="28" y="160" class="f-body row-s ink-2" transform="translate(0, 0)">pull request · merged · +124 −38 · 2 files</text></g><g transform="translate(0, 80)"><text x="28" y="120" class="f-mono meta ln">linear · ENG-219</text><text x="360" y="120" class="f-mono meta ink-3">11:20</text><text x="28" y="142" class="f-body row-t ink-1">Push notification silently drops on relaunch</text><text x="28" y="160" class="f-body row-s ink-3">issue · assigned to you · 2 comments</text><circle cx="404" cy="142" r="4" class="accent"/></g><g transform="translate(0, 160)"><text x="28" y="120" class="f-mono meta ji">jira · PEEK-44</text><text x="360" y="120" class="f-mono meta ink-3">09:06</text><text x="28" y="142" class="f-body row-t ink-1">re: detail pane keyboard shortcuts</text><text x="28" y="160" class="f-body row-s ink-3">mention · by m.akbar · 4 comments</text><circle cx="404" cy="142" r="4" class="accent"/></g><text x="24" y="364" class="f-mono cap ink-3">Yesterday · Apr 21</text><line x1="190" x2="416" y1="360" y2="360" class="line-soft"/><g><text x="28" y="120" class="f-mono meta bb" transform="translate(0, 276)">bitbucket · infra/deploy</text><text x="360" y="120" class="f-mono meta ink-3" transform="translate(0, 276)">17:52</text><text x="28" y="142" class="f-body row-t ink-2" transform="translate(0, 276)">Merged release/0.3 → main</text><text x="28" y="160" class="f-body row-s ink-3" transform="translate(0, 276)">pull request · 7 commits</text></g><g><text x="28" y="120" class="f-mono meta gh" transform="translate(0, 344)">github · Rohithgilla12/noti-peek</text><text x="360" y="120" class="f-mono meta ink-3" transform="translate(0, 344)">16:14</text><text x="28" y="142" class="f-body row-t ink-2" transform="translate(0, 344)">chore(release): v0.4.0</text><text x="28" y="160" class="f-body row-s ink-3" transform="translate(0, 344)">release · draft</text></g><g><text x="28" y="120" class="f-mono meta ln" transform="translate(0, 412)">linear · bundle</text><text x="340" y="120" class="f-mono meta ink-3" transform="translate(0, 412)">3 items · 13:40</text><text x="28" y="142" class="f-body row-t ink-2" transform="translate(0, 412)">Team review: phase-0 reliability</text><text x="28" y="160" class="f-body row-s ink-3" transform="translate(0, 412)">ENG-204, ENG-205, ENG-206</text></g><g><text x="28" y="120" class="f-mono meta gh" transform="translate(0, 480)">github · tauri-apps/plugins</text><text x="360" y="120" class="f-mono meta ink-3" transform="translate(0, 480)">10:02</text><text x="28" y="142" class="f-body row-t ink-2" transform="translate(0, 480)">plugin-updater@2.10.1 released</text><text x="28" y="160" class="f-body row-s ink-3" transform="translate(0, 480)">watch · release</text></g></g><g transform="translate(440, 0)"><text x="48" y="88" class="f-mono cap ink-3">github / pull request / merged</text><text x="48" y="126" class="f-body title ink-1">fix: harden error paths</text><text x="48" y="148" class="f-body body ink-2">token refresh, in-flight dedup, sanitize guards</text><g><text x="0" y="12" class="f-mono cap ink-4" transform="translate(48, 180)">Repository</text><text x="0" y="32" class="f-mono row-s ink-1" transform="translate(48, 180)">Rohithgilla12/noti-peek</text><text x="240" y="12" class="f-mono cap ink-4" transform="translate(48, 180)">Branch</text><text x="240" y="32" class="f-mono row-s ink-1" transform="translate(48, 180)">ro/edge-reconnect</text><text x="440" y="12" class="f-mono cap ink-4" transform="translate(48, 180)">Author</text><text x="440" y="32" class="f-mono row-s ink-1" transform="translate(48, 180)">Rohith Gilla</text><text x="580" y="12" class="f-mono cap ink-4" transform="translate(48, 180)">Merged</text><text x="580" y="32" class="f-mono row-s ink-1" transform="translate(48, 180)">10m ago</text></g><line x1="48" x2="632" y1="236" y2="236" class="line-soft"/><text x="48" y="270" class="f-mono cap ink-3">Description</text><g class="f-body body ink-2"><text x="48" y="300">Replaces the blanket try/catch in the reconnect envelope so</text><text x="48" y="322">expired tokens surface a typed ScopeError the UI can act on.</text><text x="48" y="344">Adds regression coverage for Jira token refresh, in-flight</text><text x="48" y="366">dedup, and sanitization of reconnect payloads.</text></g><g><text x="0" y="12" class="f-mono cap ink-3" transform="translate(48, 404)">Commits · 3</text><g class="f-mono row-s"><text x="0" y="42" class="ink-3" transform="translate(48, 404)">6dbe23c</text><text x="80" y="42" class="ink-1" transform="translate(48, 404)">fix: harden error paths on reconnect</text><text x="0" y="66" class="ink-3" transform="translate(48, 404)">150a838</text><text x="80" y="66" class="ink-1" transform="translate(48, 404)">fix(app): structured scope-error propagation</text><text x="0" y="90" class="ink-3" transform="translate(48, 404)">dedc0d6</text><text x="80" y="90" class="ink-1" transform="translate(48, 404)">test(backend): cover actions + Jira refresh</text></g></g><g><text x="0" y="12" class="f-mono cap ink-3" transform="translate(48, 524)">Checks</text><g class="f-mono row-s ink-2" transform="translate(48, 524)"><circle cx="6" cy="38" r="4" fill="oklch(0.60 0.15 140)"/><text x="20" y="42">ci · 2m 14s</text><circle cx="140" cy="38" r="4" fill="oklch(0.60 0.15 140)"/><text x="154" y="42">test · 47s</text><circle cx="260" cy="38" r="4" fill="oklch(0.60 0.15 140)"/><text x="274" y="42">build · 1m 02s</text><circle cx="400" cy="38" r="4" fill="oklch(0.65 0.15 80)"/><text x="414" y="42">deploy · pending</text></g></g><g transform="translate(48, 600)"><rect width="168" height="40" x="0" y="0" class="accent" rx="4"/><text x="84" y="25" class="f-body row-t accent-ink" text-anchor="middle">Open in browser</text><rect width="120" height="40" x="184" y="0" fill="none" stroke="var(--line)" stroke-width="1.5" rx="4"/><text x="244" y="25" class="f-body row-s ink-1" text-anchor="middle">Mark read</text><rect width="110" height="40" x="316" y="0" fill="none" stroke="var(--line)" stroke-width="1.5" rx="4"/><text x="371" y="25" class="f-body row-s ink-1" text-anchor="middle">Comment</text></g></g><rect width="1120" height="40" x="0" y="680" class="win-elev"/><line x1="0" x2="1120" y1="680" y2="680" class="line-soft"/><text x="24" y="705" class="f-mono hint ink-3">refreshed 14:33 · auto · every 60s</text><text x="330" y="705" class="f-mono hint ink-4">github · linear · jira · bitbucket</text><text x="680" y="705" class="f-mono hint ink-2">↵ open · c comment · m merge · esc dismiss</text><text x="1096" y="705" class="f-mono hint ink-3" text-anchor="end">v0.4.0</text></g></svg>