<svg xmlns="http://www.w3.org/2000/svg" aria-label="noti-peek — pulse view, dark theme" role="img" viewBox="0 0 1120 720"><title>noti-peek — pulse view</title><defs><style>@import url(https://fonts.googleapis.com/css2?family=Chivo:ital,wght@0,400;0,500;1,400&amp;family=JetBrains+Mono:ital,wght@0,400;0,500;1,400&amp;display=swap);@keyframes blink{0%{opacity:1}50%{opacity:0}}:root{--win:oklch(0.18 0.01 80);--win-elev:oklch(0.22 0.01 80);--win-elev-2:oklch(0.25 0.01 80);--bg-sel:oklch(0.25 0.01 80);--line:oklch(0.35 0.01 80);--line-soft:oklch(0.28 0.01 80);--ink-1:oklch(0.85 0.01 80);--ink-2:oklch(0.70 0.01 80);--ink-3:oklch(0.55 0.01 80);--ink-4:oklch(0.45 0.01 80);--accent:oklch(0.90 0.02 80);--accent-ink:oklch(0.18 0.01 80)}.win{fill:var(--win)}.win-elev{fill:var(--win-elev)}.win-elev-2{fill:var(--win-elev-2)}.line-soft{stroke:var(--line-soft);stroke-width:1;fill:none}.ink-1{fill:var(--ink-1)}.ink-2{fill:var(--ink-2)}.ink-3{fill:var(--ink-3)}.ink-4{fill:var(--ink-4)}.f-body{font-family:&apos;Chivo&apos;,sans-serif}.f-disp,.f-mono{font-family:&apos;JetBrains Mono&apos;,monospace}.f-disp{font-style:italic}.cap,.row-t{font-weight:500}.cap{font-size:11px;letter-spacing:.12em;text-transform:uppercase}.row-t{font-size:14px}.row-s{font-size:13px}.brand,.tab{font-size:15px;font-weight:500;letter-spacing:.02em}.tab{font-size:13px}.hint{font-size:12px;letter-spacing:.01em}.big-num{font-size:32px;font-weight:500;letter-spacing:-.02em}.cursor{animation:blink 1s step-end infinite}</style><clipPath id="winp"><rect width="1120" height="720" x="0" y="0" rx="12" ry="12"/></clipPath></defs><g clip-path="url(#winp)"><rect width="1120" height="720" class="win"/><rect width="1120" height="52" x="0" y="0" class="win-elev"/><line x1="0" x2="1120" y1="52" y2="52" class="line-soft"/><circle cx="22" cy="26" r="6" fill="#ff5f56" stroke="#e0443e" stroke-width=".5"/><circle cx="42" cy="26" r="6" fill="#ffbd2e" stroke="#dea123" stroke-width=".5"/><circle cx="62" cy="26" r="6" fill="#27c93f" stroke="#1da831" stroke-width=".5"/><text x="96" y="31" class="f-mono brand ink-1">noti<tspan class="f-disp" dx="0">peek</tspan><tspan fill="var(--accent)" class="cursor" dx="2">_</tspan></text><g transform="translate(470, 0)"><rect width="180" height="28" x="0" y="12" class="win-elev-2" rx="4"/><rect width="88" height="24" x="90" y="14" fill="var(--bg-sel)" stroke="var(--line-soft)" stroke-width="1" rx="2"/><text x="46" y="31" class="f-mono tab ink-3" text-anchor="middle">inbox</text><text x="134" y="31" class="f-mono tab ink-1" text-anchor="middle">pulse</text></g><g><text x="0" y="14" class="f-mono cap ink-3" transform="translate(48, 88)">This week</text><g><text x="0" y="32" class="f-mono big-num ink-1" transform="translate(48, 88) translate(0, 36)">47</text><text x="0" y="58" class="f-mono cap ink-3" transform="translate(48, 88) translate(0, 36)">reviewed</text><text x="170" y="32" class="f-mono big-num ink-1" transform="translate(48, 88) translate(0, 36)">12</text><text x="170" y="58" class="f-mono cap ink-3" transform="translate(48, 88) translate(0, 36)">merged</text><text x="310" y="32" class="f-mono big-num ink-1" transform="translate(48, 88) translate(0, 36)">4</text><text x="310" y="58" class="f-mono cap ink-3" transform="translate(48, 88) translate(0, 36)">still open</text><text x="470" y="32" class="f-mono big-num ink-1" transform="translate(48, 88) translate(0, 36)">2h 14m</text><text x="470" y="58" class="f-mono cap ink-3" transform="translate(48, 88) translate(0, 36)">median response</text><text x="700" y="32" class="f-mono big-num ink-1" transform="translate(48, 88) translate(0, 36)">38%</text><text x="700" y="58" class="f-mono cap ink-3" transform="translate(48, 88) translate(0, 36)">bundled</text><text x="860" y="32" class="f-mono big-num ink-1" transform="translate(48, 88) translate(0, 36)">0</text><text x="860" y="58" class="f-mono cap ink-3" transform="translate(48, 88) translate(0, 36)">overdue</text></g></g><line x1="48" x2="1072" y1="212" y2="212" class="line-soft"/><g><text x="0" y="12" class="f-mono cap ink-3" transform="translate(48, 236)">Activity · last 14 days</text><g transform="translate(48, 236) translate(0, 36)"><g fill="var(--line-soft)"><rect width="24" height="40" x="0" y="48" rx="2"/><rect width="24" height="52" x="40" y="36" rx="2"/><rect width="24" height="64" x="80" y="24" rx="2"/><rect width="24" height="46" x="120" y="42" rx="2"/><rect width="24" height="20" x="160" y="68" rx="2"/><rect width="24" height="14" x="200" y="74" rx="2"/><rect width="24" height="68" x="240" y="20" rx="2"/><rect width="24" height="56" x="280" y="32" rx="2"/><rect width="24" height="38" x="320" y="50" rx="2"/><rect width="24" height="58" x="360" y="30" rx="2"/><rect width="24" height="72" x="400" y="16" rx="2"/></g><rect width="24" height="88" x="440" y="0" fill="var(--accent)" rx="2"/><g fill="var(--line-soft)"><rect width="24" height="48" x="480" y="40" rx="2"/><rect width="24" height="30" x="520" y="58" rx="2"/></g><g class="f-mono hint ink-4"><text x="4" y="112">mon</text><text x="204" y="112">sat</text><text x="404" y="112">thu</text><text x="524" y="112">sun</text></g></g></g><line x1="48" x2="1072" y1="392" y2="392" class="line-soft"/><g><text x="0" y="12" class="f-mono cap ink-3" transform="translate(48, 416)">Top sources · 14 days</text><g class="f-body" transform="translate(48, 416) translate(0, 48)"><text x="0" y="0" class="row-t ink-1">Rohithgilla12/noti-peek</text><rect width="380" height="12" x="380" y="-12" fill="var(--bg-sel)" rx="3"/><rect width="326" height="12" x="380" y="-12" fill="var(--ink-2)" rx="3"/><text x="780" y="0" class="f-mono row-s ink-2">86%</text><text x="860" y="0" class="f-mono row-s ink-3">41 notifs</text><text x="0" y="36" class="row-t ink-1">acme-labs/gateway</text><rect width="380" height="12" x="380" y="24" fill="var(--bg-sel)" rx="3"/><rect width="152" height="12" x="380" y="24" fill="var(--ink-2)" rx="3"/><text x="780" y="36" class="f-mono row-s ink-2">40%</text><text x="860" y="36" class="f-mono row-s ink-3">19 notifs</text><text x="0" y="72" class="row-t ink-1">tauri-apps/plugins-workspace</text><rect width="380" height="12" x="380" y="60" fill="var(--bg-sel)" rx="3"/><rect width="84" height="12" x="380" y="60" fill="var(--ink-3)" rx="3"/><text x="780" y="72" class="f-mono row-s ink-2">22%</text><text x="860" y="72" class="f-mono row-s ink-3">11 notifs</text><text x="0" y="108" class="row-t ink-2">linear · ENG</text><rect width="380" height="12" x="380" y="96" fill="var(--bg-sel)" rx="3"/><rect width="63" height="12" x="380" y="96" fill="var(--ink-3)" rx="3"/><text x="780" y="108" class="f-mono row-s ink-2">16%</text><text x="860" y="108" class="f-mono row-s ink-3">8 notifs</text><text x="0" y="144" class="row-t ink-2">jira · PEEK</text><rect width="380" height="12" x="380" y="132" fill="var(--bg-sel)" rx="3"/><rect width="38" height="12" x="380" y="132" fill="var(--ink-3)" rx="3"/><text x="780" y="144" class="f-mono row-s ink-2">10%</text><text x="860" y="144" class="f-mono row-s ink-3">5 notifs</text></g></g><rect width="1120" height="40" x="0" y="680" class="win-elev"/><line x1="0" x2="1120" y1="680" y2="680" class="line-soft"/><text x="24" y="705" class="f-mono hint ink-3">pulse · rolling 14-day window · recomputes hourly</text><text x="1096" y="705" class="f-mono hint ink-3" text-anchor="end">v0.4.0</text></g></svg>